<?xml version="1.0" standalone="no"?><!DOCTYPE svg PUBLIC "-//W3C//DTD SVG 1.1//EN" "http://www.w3.org/Graphics/SVG/1.1/DTD/svg11.dtd"><svg t="1769421172551" class="icon" viewBox="0 0 1024 1024" version="1.1" xmlns="http://www.w3.org/2000/svg" p-id="1652" xmlns:xlink="http://www.w3.org/1999/xlink" width="200" height="200"><path d="M976 542.4H324.8c-17.6 0-32-14.4-32-32s14.4-32 32-32H976c17.6 0 32 14.4 32 32s-14.4 32-32 32zM976 833.6H324.8c-17.6 0-32-14.4-32-32s14.4-32 32-32H976c17.6 0 32 14.4 32 32s-14.4 32-32 32z" fill="#43484D" p-id="1653"></path><path d="M976 268.8H324.8c-17.6 0-32-14.4-32-32s14.4-32 32-32H976c17.6 0 32 14.4 32 32s-14.4 32-32 32z" fill="#cdcdcd" p-id="1654" data-spm-anchor-id="a313x.search_index.0.i1.69653a81KPntPX" class="selected"></path><path d="M91.2 564.8c-30.4 0-54.4-24-54.4-54.4s24-54.4 54.4-54.4 54.4 24 54.4 54.4-24 54.4-54.4 54.4z m0-64c-4.8 0-9.6 4.8-9.6 9.6s4.8 9.6 9.6 9.6 9.6-4.8 9.6-9.6-3.2-9.6-9.6-9.6zM91.2 856c-30.4 0-54.4-24-54.4-54.4s24-54.4 54.4-54.4 54.4 24 54.4 54.4-24 54.4-54.4 54.4z m0-64c-4.8 0-9.6 4.8-9.6 9.6s4.8 9.6 9.6 9.6 9.6-4.8 9.6-9.6-3.2-9.6-9.6-9.6z" fill="#43484D" p-id="1655"></path><path d="M91.2 291.2c-30.4 0-54.4-24-54.4-54.4s24-54.4 54.4-54.4 54.4 24 54.4 54.4-24 54.4-54.4 54.4z m0-64c-4.8 0-9.6 4.8-9.6 9.6s4.8 9.6 9.6 9.6 9.6-4.8 9.6-9.6-3.2-9.6-9.6-9.6z" fill="#cdcdcd" p-id="1656" data-spm-anchor-id="a313x.search_index.0.i4.69653a81KPntPX" class="selected"></path></svg>