<?xml version="1.0" standalone="no"?><!DOCTYPE svg PUBLIC "-//W3C//DTD SVG 1.1//EN" "http://www.w3.org/Graphics/SVG/1.1/DTD/svg11.dtd"><svg t="1769424717096" class="icon" viewBox="0 0 1024 1024" version="1.1" xmlns="http://www.w3.org/2000/svg" p-id="5621" xmlns:xlink="http://www.w3.org/1999/xlink" width="200" height="200"><path d="M0 0h1024v1024H0z" fill="#706F6C" fill-opacity="0" p-id="5622"></path><path d="M843.294118 360.146824a26.352941 26.352941 0 0 1 3.312941 52.525176l-3.312941 0.180706H210.823529a26.352941 26.352941 0 0 1-3.312941-52.495059l3.312941-0.210823h632.470589z" fill="#706F6C" p-id="5623"></path><path d="M386.499765 184.470588c13.432471 0 24.545882 10.059294 26.172235 23.04l0.180706 3.312941v632.470589a26.352941 26.352941 0 0 1-52.495059 3.312941l-0.210823-3.312941V210.823529c0-14.546824 11.806118-26.352941 26.352941-26.352941zM667.617882 184.470588c13.432471 0 24.515765 10.059294 26.142118 23.04l0.210824 3.312941v632.470589a26.352941 26.352941 0 0 1-52.525177 3.312941l-0.180706-3.312941V210.823529c0-14.546824 11.776-26.352941 26.352941-26.352941z" fill="#706F6C" p-id="5624"></path><path d="M843.294118 641.264941a26.352941 26.352941 0 0 1 3.312941 52.495059l-3.312941 0.210824H210.823529a26.352941 26.352941 0 0 1-3.312941-52.525177l3.312941-0.180706h632.470589z" fill="#706F6C" p-id="5625"></path></svg>