<?xml version="1.0" standalone="no"?><!DOCTYPE svg PUBLIC "-//W3C//DTD SVG 1.1//EN" "http://www.w3.org/Graphics/SVG/1.1/DTD/svg11.dtd"><svg t="1769421279447" class="icon" viewBox="0 0 1024 1024" version="1.1" xmlns="http://www.w3.org/2000/svg" p-id="4474" xmlns:xlink="http://www.w3.org/1999/xlink" width="200" height="200"><path d="M160.01219 128c-17.67619 0-32.01219 14.336-32.01219 32.01219v704c0 17.65181 14.336 31.98781 32.01219 31.98781h298.666667c17.65181 0 31.98781-14.336 31.98781-32.01219V160.036571c0-17.67619-14.336-32.01219-32.012191-32.01219H160.01219z m26.648381 58.660571H432.030476v650.678858H186.660571V186.660571zM565.345524 128c-17.67619 0-32.01219 14.336-32.012191 32.01219v298.666667c0 17.65181 14.336 31.98781 32.012191 31.98781h298.666666c17.65181 0 31.98781-14.336 31.98781-32.012191V160.01219c0-17.65181-14.336-31.98781-32.01219-31.987809h-298.666667z m26.648381 58.660571h245.345524V432.030476H591.969524V186.660571zM533.333333 565.345524c0-17.67619 14.336-32.01219 32.012191-32.012191h298.666666c17.65181 0 31.98781 14.336 31.98781 32.012191v298.666666c0 17.65181-14.336 31.98781-32.01219 31.98781h-298.666667a31.98781 31.98781 0 0 1-31.98781-32.01219v-298.666667z m58.660572 271.993905h245.345524V591.969524H591.969524v245.345524z" p-id="4475" data-spm-anchor-id="a313x.search_index.0.i7.69653a81KPntPX" class="" fill="#515151"></path></svg>